<svg width="32" height="32" viewBox="0 0 120 100" fill="none" xmlns="http://www.w3.org/2000/svg">
  <circle cx="25" cy="18" r="17" fill="#3D3028"/>
  <circle cx="95" cy="18" r="17" fill="#3D3028"/>
  <circle cx="25" cy="18" r="9" fill="#5C4A3D"/>
  <circle cx="95" cy="18" r="9" fill="#5C4A3D"/>
  <ellipse cx="60" cy="50" rx="46" ry="36" fill="#FFF9F5" stroke="#3D3028" stroke-width="2.5"/>
  <ellipse cx="38" cy="46" rx="16" ry="13" fill="#3D3028" transform="rotate(-8 38 46)"/>
  <ellipse cx="82" cy="46" rx="16" ry="13" fill="#3D3028" transform="rotate(8 82 46)"/>
  <circle cx="38" cy="45" r="8.5" fill="#FFFDF8"/>
  <circle cx="82" cy="45" r="8.5" fill="#FFFDF8"/>
  <circle cx="40" cy="45" r="6" fill="#3D3028"/>
  <circle cx="84" cy="45" r="6" fill="#3D3028"/>
  <circle cx="43" cy="43" r="2.8" fill="#FFFDF8"/>
  <circle cx="87" cy="43" r="2.8" fill="#FFFDF8"/>
  <ellipse cx="60" cy="58" rx="4.5" ry="3" fill="#3D3028"/>
  <path d="M 55 62 Q 60 67 65 62" stroke="#3D3028" stroke-width="1.5" fill="none" stroke-linecap="round"/>
  <circle cx="24" cy="56" r="8" fill="#FFB6C8" opacity="0.35"/>
  <circle cx="96" cy="56" r="8" fill="#FFB6C8" opacity="0.35"/>
</svg>
